<svg xmlns="http://www.w3.org/2000/svg" viewBox="0 0 326.52 195.72"><title>资源 1</title><g id="图层_2" data-name="图层 2"><g id="图层_1-2" data-name="图层 1"><path d="M12.71,112.28v.79s11.13,1.59,7.15,12.71S0,195.72,0,195.72H62.78L91.35,91.45A8.25,8.25,0,0,0,88.93,83C87,81.34,84,80.34,79.47,82.08,69.14,86.05,12.71,112.28,12.71,112.28Z"/><path d="M95.36,83.67v.79s12.71-1.59,7.95,12.71-27,98.54-27,98.54h77.08L189.13,64.36a24.91,24.91,0,0,0,.72-9.89c-.69-5.09-3.16-10.8-11-8.95C165.29,48.7,95.36,83.67,95.36,83.67Z"/><path d="M195.49,55.06v1.59s11.13-.79,7.15,15.1-33.38,124-33.38,124H277.34L325,20.09S333-5.34,312.31,1,195.49,55.06,195.49,55.06Z"/></g></g></svg>